<svg width="40" height="40" viewBox="0 0 40 40" fill="none" xmlns="http://www.w3.org/2000/svg">
<path fill-rule="evenodd" clip-rule="evenodd" d="M12.442 1.7765C14.397 1.6865 15.0203 1.6665 20.0003 1.6665C24.9803 1.6665 25.6037 1.68817 27.557 1.7765C29.5103 1.86484 30.8437 2.1765 32.0103 2.62817C33.232 3.08984 34.3403 3.8115 35.257 4.74484C36.1903 5.65984 36.9103 6.7665 37.3703 7.98984C37.8237 9.1565 38.1337 10.4898 38.2237 12.4398C38.3137 14.3982 38.3337 15.0215 38.3337 19.9998C38.3337 24.9798 38.312 25.6032 38.2237 27.5582C38.1353 29.5082 37.8237 30.8415 37.3703 32.0082C36.9103 33.2317 36.1891 34.3402 35.257 35.2565C34.3403 36.1898 33.232 36.9098 32.0103 37.3698C30.8437 37.8232 29.5103 38.1332 27.5603 38.2232C25.6037 38.3132 24.9803 38.3332 20.0003 38.3332C15.0203 38.3332 14.397 38.3115 12.442 38.2232C10.492 38.1348 9.15866 37.8232 7.99199 37.3698C6.76853 36.9098 5.66003 36.1886 4.74366 35.2565C3.81096 34.341 3.08918 33.233 2.62866 32.0098C2.17699 30.8432 1.86699 29.5098 1.77699 27.5598C1.68699 25.6015 1.66699 24.9782 1.66699 19.9998C1.66699 15.0198 1.68866 14.3965 1.77699 12.4432C1.86533 10.4898 2.17699 9.1565 2.62866 7.98984C3.08986 6.76664 3.81219 5.65869 4.74533 4.74317C5.66039 3.81067 6.76778 3.08891 7.99032 2.62817C9.15699 2.1765 10.4903 1.8665 12.4403 1.7765H12.442ZM27.4087 5.0765C25.4753 4.98817 24.8953 4.96984 20.0003 4.96984C15.1053 4.96984 14.5253 4.98817 12.592 5.0765C10.8037 5.15817 9.83366 5.4565 9.18699 5.70817C8.33199 6.0415 7.72033 6.4365 7.07866 7.07817C6.4704 7.66992 6.00229 8.39031 5.70866 9.1865C5.45699 9.83317 5.15866 10.8032 5.07699 12.5915C4.98866 14.5248 4.97033 15.1048 4.97033 19.9998C4.97033 24.8948 4.98866 25.4748 5.07699 27.4082C5.15866 29.1965 5.45699 30.1665 5.70866 30.8132C6.00199 31.6082 6.47033 32.3298 7.07866 32.9215C7.67033 33.5298 8.39199 33.9982 9.18699 34.2915C9.83366 34.5432 10.8037 34.8415 12.592 34.9232C14.5253 35.0115 15.1037 35.0298 20.0003 35.0298C24.897 35.0298 25.4753 35.0115 27.4087 34.9232C29.197 34.8415 30.167 34.5432 30.8137 34.2915C31.6687 33.9582 32.2803 33.5632 32.922 32.9215C33.5303 32.3298 33.9987 31.6082 34.292 30.8132C34.5437 30.1665 34.842 29.1965 34.9237 27.4082C35.012 25.4748 35.0303 24.8948 35.0303 19.9998C35.0303 15.1048 35.012 14.5248 34.9237 12.5915C34.842 10.8032 34.5437 9.83317 34.292 9.1865C33.9587 8.3315 33.5637 7.71984 32.922 7.07817C32.3302 6.46996 31.6098 6.00185 30.8137 5.70817C30.167 5.4565 29.197 5.15817 27.4087 5.0765ZM17.6587 25.6515C18.9664 26.1959 20.4226 26.2694 21.7785 25.8594C23.1345 25.4494 24.306 24.5814 25.093 23.4036C25.88 22.2258 26.2337 20.8113 26.0937 19.4017C25.9537 17.9921 25.3287 16.6748 24.3253 15.6748C23.6857 15.0356 22.9123 14.5462 22.0609 14.2417C21.2094 13.9373 20.301 13.8254 19.4011 13.9142C18.5013 14.003 17.6322 14.2901 16.8567 14.7551C16.0811 15.22 15.4182 15.8511 14.9158 16.6029C14.4134 17.3548 14.084 18.2087 13.9512 19.1031C13.8184 19.9976 13.8856 20.9103 14.1479 21.7757C14.4102 22.6411 14.8611 23.4375 15.4682 24.1077C16.0753 24.7779 16.8234 25.3051 17.6587 25.6515ZM13.337 13.3365C14.212 12.4615 15.2509 11.7673 16.3942 11.2938C17.5375 10.8202 18.7628 10.5765 20.0003 10.5765C21.2378 10.5765 22.4632 10.8202 23.6065 11.2938C24.7498 11.7673 25.7886 12.4615 26.6637 13.3365C27.5387 14.2115 28.2328 15.2504 28.7064 16.3937C29.18 17.537 29.4237 18.7623 29.4237 19.9998C29.4237 21.2373 29.18 22.4627 28.7064 23.606C28.2328 24.7493 27.5387 25.7881 26.6637 26.6632C24.8964 28.4304 22.4996 29.4232 20.0003 29.4232C17.5011 29.4232 15.1042 28.4304 13.337 26.6632C11.5698 24.8959 10.5769 22.4991 10.5769 19.9998C10.5769 17.5006 11.5698 15.1037 13.337 13.3365ZM31.5137 11.9798C31.7305 11.7753 31.9041 11.5293 32.0242 11.2565C32.1442 10.9836 32.2083 10.6895 32.2127 10.3914C32.217 10.0933 32.1615 9.79742 32.0495 9.52119C31.9374 9.24496 31.771 8.99402 31.5603 8.78324C31.3495 8.57245 31.0985 8.4061 30.8223 8.29403C30.5461 8.18197 30.2502 8.12646 29.9521 8.13081C29.654 8.13515 29.3599 8.19926 29.087 8.31933C28.8142 8.4394 28.5682 8.613 28.3637 8.82984C27.9658 9.25155 27.748 9.81171 27.7565 10.3914C27.7649 10.9711 27.999 11.5246 28.4089 11.9346C28.8189 12.3445 29.3724 12.5786 29.9521 12.587C30.5318 12.5955 31.0919 12.3777 31.5137 11.9798Z" fill="white"/>
</svg>
