<svg width="40" height="40" viewBox="0 0 40 40" fill="none" xmlns="http://www.w3.org/2000/svg">
<path d="M39.4049 8.2283C38.0132 8.84496 36.5182 9.26163 34.9465 9.44997C36.5682 8.47962 37.7814 6.95241 38.3599 5.1533C36.8363 6.05828 35.1688 6.69529 33.4299 7.03663C32.2605 5.78807 30.7116 4.96051 29.0237 4.68242C27.3358 4.40434 25.6034 4.69128 24.0953 5.49872C22.5872 6.30616 21.3878 7.5889 20.6834 9.14781C19.9791 10.7067 19.8091 12.4545 20.1999 14.12C17.1127 13.965 14.0926 13.1625 11.3356 11.7648C8.57856 10.3671 6.14626 8.40523 4.19652 6.00663C3.52986 7.15663 3.14652 8.48997 3.14652 9.90997C3.14578 11.1883 3.46058 12.447 4.06299 13.5745C4.6654 14.702 5.53679 15.6634 6.59986 16.3733C5.36698 16.3341 4.16131 16.0009 3.08319 15.4016V15.5016C3.08307 17.2945 3.70324 19.0323 4.8385 20.42C5.97375 21.8077 7.55414 22.7598 9.31152 23.115C8.16783 23.4245 6.96875 23.4701 5.80486 23.2483C6.30069 24.791 7.26652 26.14 8.56714 27.1065C9.86775 28.073 11.4381 28.6086 13.0582 28.6383C10.3079 30.7973 6.91134 31.9684 3.41486 31.9633C2.79549 31.9635 2.17665 31.9273 1.56152 31.855C5.11065 34.1369 9.24209 35.348 13.4615 35.3433C27.7449 35.3433 35.5532 23.5133 35.5532 13.2533C35.5532 12.92 35.5449 12.5833 35.5299 12.25C37.0487 11.1516 38.3597 9.79146 39.4015 8.2333L39.4049 8.2283Z" fill="white"/>
</svg>
