<svg width="128" height="34" viewBox="0 0 128 34" fill="none" xmlns="http://www.w3.org/2000/svg">
<path fill-rule="evenodd" clip-rule="evenodd" d="M105.23 22.26C107.72 22.26 109.69 19.57 109.69 16.26V8.26001H111.69V16.26C111.69 20.66 108.81 24.21 105.27 24.21C101.73 24.21 98.85 20.66 98.85 16.26V8.26001H100.85V16.26C100.77 19.62 102.74 22.31 105.22 22.31L105.23 22.26ZM57.06 24.33H55.06V22.9C53.7702 23.8028 52.2344 24.288 50.66 24.29C46.9602 24.3148 43.7261 21.7993 42.8396 18.2072C41.953 14.6151 43.6452 10.8837 46.9316 9.18417C50.218 7.48462 54.2411 8.26036 56.66 11.06L55.19 12.37C53.3509 10.3139 50.3468 9.77668 47.9092 11.068C45.4715 12.3594 44.2284 15.1465 44.8965 17.823C45.5645 20.4995 47.9714 22.3756 50.73 22.37C52.4117 22.3735 54.0112 21.6431 55.11 20.37H49.71V18.37H57.08L57.06 24.33ZM23.23 8.39001H21.23V24.31H29.23V22.31H23.23V8.39001ZM35.46 20.39C38.7737 20.39 41.46 17.7037 41.46 14.39C41.46 11.0763 38.7737 8.39001 35.46 8.39001C33.8687 8.39001 32.3426 9.02215 31.2174 10.1474C30.0922 11.2726 29.46 12.7987 29.46 14.39C29.46 17.7037 32.1463 20.39 35.46 20.39ZM35.46 18.39C37.6691 18.39 39.46 16.5991 39.46 14.39C39.46 12.1809 37.6691 10.39 35.46 10.39C33.2509 10.39 31.46 12.1809 31.46 14.39C31.471 16.5913 33.2587 18.37 35.46 18.37V18.39ZM39.46 24.33V22.33H31.46V24.33H39.46ZM70.42 14.43C70.42 11.1163 67.7337 8.43001 64.42 8.43001L64.44 8.39001C62.8383 8.38464 61.3009 9.01991 60.1702 10.1544C59.0395 11.2888 58.4093 12.8283 58.42 14.43C58.42 17.7437 61.1063 20.43 64.42 20.43C67.7337 20.43 70.42 17.7437 70.42 14.43ZM64.42 18.43C66.6292 18.43 68.42 16.6391 68.42 14.43C68.42 12.2209 66.6292 10.43 64.42 10.43C62.2109 10.43 60.42 12.2209 60.42 14.43C60.4529 16.6235 62.2463 18.3812 64.44 18.37L64.42 18.43ZM68.42 24.37V22.37H60.42V24.37H68.42ZM72.55 8.39001H74.55V24.29H72.55V8.39001ZM79.32 8.39001H77.32V24.32H79.32V20.32H79.63C81.9154 20.5679 84.1415 19.4883 85.3619 17.5402C86.5822 15.5921 86.5822 13.1179 85.3619 11.1698C84.1415 9.2217 81.9154 8.14208 79.63 8.39001C79.527 8.37909 79.4231 8.37909 79.32 8.39001ZM79.32 10.39V10.4367L79.31 10.44L79.32 10.39ZM79.32 10.4367C79.4206 10.4033 79.5246 10.381 79.63 10.37C81.1724 10.1646 82.6938 10.8723 83.5305 12.1841C84.3672 13.496 84.3672 15.174 83.5305 16.4859C82.6938 17.7977 81.1724 18.5054 79.63 18.3H79.32V10.4367ZM93.6969 9.56616L93.73 9.54001L93.72 9.59001L93.6969 9.56616ZM90.91 8.44001C91.9561 8.40913 92.9667 8.81792 93.6969 9.56616L92.25 10.71C91.7287 10.1653 90.939 9.97199 90.2251 10.2143C89.5111 10.4565 89.0022 11.0905 88.92 11.84V12C88.92 12.88 89.53 13.47 90.72 13.55C95.3 13.83 97.4 15.98 97.4 18.82V19C97.1585 21.2955 95.6007 23.2393 93.413 23.975C91.2253 24.7107 88.8094 24.1031 87.23 22.42L88.76 21.24C89.4808 22.0125 90.5046 22.4293 91.56 22.38C93.5612 22.4855 95.2899 20.9949 95.48 19V18.86C95.48 16.19 92.86 15.7 90.59 15.48C88.49 15.28 86.98 13.97 86.98 12.08V12C87.1338 9.95654 88.8613 8.39165 90.91 8.44001ZM125.04 24.26H127.04L127.02 8.39001L120.42 17.08L113.82 8.39001V24.29H115.82V14.36L120.43 20.36L125.04 14.36V24.26Z" fill="white"/>
<path fill-rule="evenodd" clip-rule="evenodd" d="M11.63 6.00006C11.63 2.99563 9.19443 0.560059 6.19 0.560059C3.18557 0.560059 0.75 2.99563 0.75 6.00006V22.4501L5.23 25.6601V33.4801H7.15V25.6601L11.63 22.4501V6.00006ZM9.71 15.2001L7.15 17.7601V15.3601L9.71 12.8001V15.2001ZM5.27 15.3601L2.71 12.8001V15.2001L5.27 17.7601V15.3601ZM9.71 10.0801L6.19 13.6001L2.67 10.0001V7.60006L6.19 11.1201L9.71 7.60006V10.0801ZM9.59 5.09006C9.17201 3.55483 7.7811 2.4871 6.19 2.48006V2.44006C4.58749 2.45197 3.19286 3.53896 2.79 5.09006L6.19 8.48006L9.59 5.09006ZM2.67 21.4801V17.8801L5.23 20.4401V23.3001L2.67 21.4801ZM7.15 20.4401V23.3101L9.71 21.4701V17.8801L7.15 20.4401Z" fill="#FFAC12"/>
</svg>
